<svg width="25" height="24" viewBox="0 0 25 24" fill="none" xmlns="http://www.w3.org/2000/svg">
<path d="M19.5 3H5.5C4.39543 3 3.5 3.89543 3.5 5V19C3.5 20.1046 4.39543 21 5.5 21H19.5C20.6046 21 21.5 20.1046 21.5 19V5C21.5 3.89543 20.6046 3 19.5 3Z" stroke="#463EC7" stroke-width="2" stroke-linecap="round" stroke-linejoin="round"/>
<path d="M9 10C9.82843 10 10.5 9.32843 10.5 8.5C10.5 7.67157 9.82843 7 9 7C8.17157 7 7.5 7.67157 7.5 8.5C7.5 9.32843 8.17157 10 9 10Z" stroke="#463EC7" stroke-width="2" stroke-linecap="round" stroke-linejoin="round"/>
<path d="M21.5 15L16.5 10L5.5 21" stroke="#463EC7" stroke-width="2" stroke-linecap="round" stroke-linejoin="round"/>
</svg>
