<svg width="29" height="28" viewBox="0 0 29 28" fill="none" xmlns="http://www.w3.org/2000/svg">
<path fill-rule="evenodd" clip-rule="evenodd" d="M18.7782 8.16665H21.5C22.7892 8.16665 23.8334 9.21081 23.8334 10.5V19.8333C23.8334 21.1225 22.7892 22.1666 21.5 22.1666H7.50002C6.21085 22.1666 5.16669 21.1225 5.16669 19.8333V10.5C5.16669 9.21081 6.21085 8.16665 7.50002 8.16665H10.2219L10.7329 6.63481C10.8927 6.15648 11.3407 5.83331 11.8447 5.83331H17.1554C17.6594 5.83331 18.1074 6.15648 18.2672 6.63481L18.7782 8.16665ZM9.25002 15.1666C9.25002 18.0658 11.6009 20.4166 14.5 20.4166C17.3992 20.4166 19.75 18.0658 19.75 15.1666C19.75 12.2675 17.3992 9.91665 14.5 9.91665C11.6009 9.91665 9.25002 12.2675 9.25002 15.1666ZM14.5 18.6666C16.4332 18.6666 18 17.0998 18 15.1666C18 13.2335 16.4332 11.6666 14.5 11.6666C12.5669 11.6666 11 13.2335 11 15.1666C11 17.0998 12.5669 18.6666 14.5 18.6666Z" fill="#463EC7"/>
</svg>
